<svg xmlns="http://www.w3.org/2000/svg" xmlns:xlink="http://www.w3.org/1999/xlink" width="500" zoomAndPan="magnify" viewBox="0 0 375 374.999991" height="500" preserveAspectRatio="xMidYMid meet" version="1.0"><defs><g/><clipPath id="5c5bfc76c8"><path d="M 63 63 L 312 63 L 312 312 L 63 312 Z M 63 63 " clip-rule="nonzero"/></clipPath><clipPath id="9af21c1c5e"><path d="M 63.710938 62.320312 L 312.679688 63.710938 L 311.289062 312.679688 L 62.320312 311.289062 Z M 63.710938 62.320312 " clip-rule="nonzero"/></clipPath><clipPath id="9d6510a61c"><path d="M 188.195312 63.015625 C 119.445312 62.632812 63.402344 118.054688 63.015625 186.804688 C 62.632812 255.554688 118.054688 311.597656 186.804688 311.984375 C 255.554688 312.367188 311.597656 256.945312 311.984375 188.195312 C 312.367188 119.445312 256.945312 63.402344 188.195312 63.015625 Z M 188.195312 63.015625 " clip-rule="nonzero"/></clipPath><clipPath id="2548936497"><path d="M 137.203125 77.316406 L 237.945312 77.316406 L 237.945312 165.679688 L 137.203125 165.679688 Z M 137.203125 77.316406 " clip-rule="nonzero"/></clipPath><clipPath id="6d36b7fa80"><path d="M 141.191406 91.714844 C 133.035156 105.152344 138.78125 118.230469 146.003906 125.171875 L 188.222656 165.679688 L 229.554688 125.316406 C 236.269531 117.851562 238.84375 109.929688 237.414062 101.109375 C 235.441406 88.910156 225.386719 79.441406 212.964844 78.089844 C 205.347656 77.269531 197.988281 79.425781 192.246094 84.199219 C 190.699219 85.484375 189.320312 86.917969 188.113281 88.480469 C 186.6875 86.703125 185.011719 85.078125 183.117188 83.636719 C 176.511719 78.617188 168.105469 76.625 160.03125 78.175781 C 152.382812 79.652344 145.515625 84.585938 141.191406 91.714844 Z M 141.191406 91.714844 " clip-rule="nonzero"/></clipPath><clipPath id="385eb85cb0"><path d="M 150.417969 89 L 224.691406 89 L 224.691406 154.117188 L 150.417969 154.117188 Z M 150.417969 89 " clip-rule="nonzero"/></clipPath><clipPath id="06411e275f"><path d="M 153.359375 99.585938 C 147.34375 109.492188 151.582031 119.136719 156.90625 124.253906 L 188.035156 154.117188 L 218.503906 124.359375 C 223.457031 118.855469 225.355469 113.015625 224.300781 106.511719 C 222.84375 97.515625 215.429688 90.539062 206.273438 89.542969 C 200.660156 88.9375 195.234375 90.527344 191 94.042969 C 189.859375 94.992188 188.839844 96.050781 187.953125 97.199219 C 186.898438 95.890625 185.664062 94.691406 184.269531 93.628906 C 179.398438 89.929688 173.199219 88.460938 167.246094 89.601562 C 161.609375 90.691406 156.546875 94.328125 153.359375 99.585938 Z M 153.359375 99.585938 " clip-rule="nonzero"/></clipPath><clipPath id="421856a142"><path d="M 162.042969 99.222656 L 213 99.222656 L 213 143.945312 L 162.042969 143.945312 Z M 162.042969 99.222656 " clip-rule="nonzero"/></clipPath><clipPath id="1595f36244"><path d="M 164.0625 106.507812 C 159.933594 113.308594 162.84375 119.929688 166.496094 123.441406 L 187.867188 143.945312 L 208.785156 123.515625 C 212.183594 119.738281 213.488281 115.726562 212.761719 111.265625 C 211.761719 105.089844 206.675781 100.296875 200.386719 99.613281 C 196.535156 99.199219 192.808594 100.289062 189.902344 102.707031 C 189.121094 103.355469 188.421875 104.082031 187.8125 104.871094 C 187.089844 103.972656 186.238281 103.148438 185.28125 102.421875 C 181.9375 99.878906 177.683594 98.871094 173.597656 99.65625 C 169.726562 100.402344 166.25 102.902344 164.0625 106.507812 Z M 164.0625 106.507812 " clip-rule="nonzero"/></clipPath></defs><g clip-path="url(#5c5bfc76c8)"><g clip-path="url(#9af21c1c5e)"><g clip-path="url(#9d6510a61c)"><path fill="#f1d5db" d="M 63.710938 62.320312 L 312.679688 63.710938 L 311.289062 312.679688 L 62.320312 311.289062 Z M 63.710938 62.320312 " fill-opacity="1" fill-rule="nonzero"/></g></g></g><g fill="#c15b75" fill-opacity="1"><g transform="translate(42.916024, 226.104966)"><g><path d="M 60.804688 -26.570312 C 56.925781 -20.753906 48.585938 -18.425781 41.988281 -18.425781 C 36.269531 -18.425781 31.808594 -20.460938 27.539062 -22.886719 C 28.703125 -25.308594 29.867188 -27.929688 31.03125 -30.742188 L 32.097656 -30.742188 C 54.402344 -30.742188 65.167969 -45.191406 65.167969 -58.574219 C 65.167969 -67.589844 59.640625 -72.148438 50.910156 -72.148438 C 39.082031 -72.148438 32 -62.160156 23.855469 -42.183594 C 21.140625 -44.316406 19.394531 -47.519531 19.394531 -51.492188 C 19.394531 -57.214844 23.175781 -60.511719 27.832031 -60.511719 C 28.800781 -60.511719 29.382812 -61.289062 29.382812 -63.128906 C 29.382812 -67.882812 25.117188 -71.277344 18.714844 -71.277344 C 8.4375 -71.277344 1.648438 -64.195312 1.648438 -53.433594 C 1.648438 -43.152344 8.535156 -35.492188 19.78125 -32.292969 C 19.105469 -30.933594 18.425781 -29.578125 17.746094 -28.414062 C 14.253906 -29.964844 10.375 -31.128906 5.722656 -31.128906 C -6.59375 -31.128906 -12.800781 -22.691406 -12.800781 -14.644531 C -12.800781 -6.496094 -7.5625 1.164062 3.007812 1.164062 C 11.054688 1.164062 16.777344 -3.589844 21.820312 -11.929688 C 26.570312 -5.914062 32.488281 0 41.699219 0 C 49.167969 0 54.789062 -4.265625 65.167969 -24.148438 C 66.136719 -25.988281 62.355469 -28.898438 60.804688 -26.570312 Z M 46.257812 -55.371094 C 48.488281 -55.371094 49.359375 -53.628906 49.359375 -51.6875 C 49.359375 -46.742188 44.027344 -39.566406 34.621094 -39.082031 C 34.71875 -39.46875 34.8125 -39.757812 35.007812 -40.148438 C 40.921875 -54.113281 44.414062 -55.371094 46.257812 -55.371094 Z M 8.4375 -19.492188 C 6.398438 -19.492188 5.332031 -20.753906 5.332031 -22.207031 C 5.332031 -23.660156 6.496094 -24.921875 8.726562 -24.921875 C 10.472656 -24.921875 12.121094 -23.953125 13.671875 -22.402344 C 11.929688 -20.460938 10.183594 -19.492188 8.4375 -19.492188 Z M 8.4375 -19.492188 "/></g></g></g><g fill="#c15b75" fill-opacity="1"><g transform="translate(101.487016, 226.104966)"><g><path d="M 10.28125 0 C 17.164062 0 22.984375 -6.304688 26.863281 -14.160156 L 27.25 -14.160156 C 26.085938 -6.109375 28.898438 0 35.589844 0 C 46.355469 0 51.6875 -15.128906 56.4375 -24.148438 C 57.410156 -25.988281 53.53125 -28.898438 52.074219 -26.570312 C 50.136719 -23.46875 47.710938 -21.625 44.414062 -21.625 C 40.148438 -21.625 39.082031 -25.503906 42.378906 -32.582031 C 44.511719 -38.207031 47.03125 -41.214844 47.03125 -44.898438 C 47.03125 -47.03125 46.160156 -48.488281 43.636719 -48.488281 C 39.082031 -48.488281 38.402344 -44.800781 35.203125 -44.800781 C 32.679688 -44.800781 33.070312 -48.488281 25.308594 -48.488281 C 8.628906 -48.488281 0.289062 -28.121094 0.289062 -14.644531 C 0.289062 -6.011719 3.683594 0 10.28125 0 Z M 19.976562 -20.074219 C 16.96875 -20.074219 15.128906 -22.011719 15.128906 -25.308594 C 15.128906 -29.578125 18.328125 -34.328125 23.371094 -34.328125 C 26.472656 -34.328125 28.414062 -32.390625 28.414062 -29.1875 C 28.414062 -25.117188 25.019531 -20.074219 19.976562 -20.074219 Z M 19.976562 -20.074219 "/></g></g></g><g fill="#c15b75" fill-opacity="1"><g transform="translate(151.330544, 226.104966)"><g><path d="M 2.714844 0.195312 C 6.980469 0.195312 5.332031 -4.847656 11.832031 -4.847656 C 16.582031 -4.847656 15.226562 0 23.953125 0 C 38.886719 0 47.324219 -18.328125 50.234375 -24.148438 C 51.882812 -27.539062 48.875 -31.03125 45.867188 -26.570312 C 42.863281 -22.109375 37.140625 -18.910156 31.03125 -18.910156 C 26.28125 -18.910156 24.148438 -19.878906 24.148438 -21.335938 C 24.148438 -25.40625 43.25 -29.867188 45.867188 -46.839844 C 46.0625 -47.90625 45.09375 -48.875 44.027344 -48.488281 C 36.65625 -45.675781 33.746094 -48.488281 26.765625 -48.488281 C 21.820312 -48.488281 20.460938 -46.546875 18.132812 -46.546875 C 15.128906 -46.546875 17.066406 -50.039062 12.898438 -50.039062 C 11.152344 -50.039062 10.28125 -48.972656 9.699219 -46.546875 C 7.757812 -37.820312 5.625 -32.097656 2.230469 -26.570312 L 6.59375 -24.148438 C 10.859375 -31.226562 15.515625 -34.910156 21.820312 -34.910156 C 24.921875 -34.910156 26.378906 -34.039062 26.378906 -32.195312 C 26.378906 -27.054688 0.871094 -17.941406 0.871094 -3.683594 C 0.871094 -0.96875 1.550781 0.195312 2.714844 0.195312 Z M 2.714844 0.195312 "/></g></g></g><g fill="#c15b75" fill-opacity="1"><g transform="translate(194.967873, 226.104966)"><g><path d="M 10.28125 0 C 17.164062 0 22.984375 -6.304688 26.863281 -14.160156 L 27.25 -14.160156 C 26.085938 -6.109375 28.898438 0 35.589844 0 C 46.355469 0 51.6875 -15.128906 56.4375 -24.148438 C 57.410156 -25.988281 53.53125 -28.898438 52.074219 -26.570312 C 50.136719 -23.46875 47.710938 -21.625 44.414062 -21.625 C 40.148438 -21.625 39.082031 -25.503906 42.378906 -32.582031 C 44.511719 -38.207031 47.03125 -41.214844 47.03125 -44.898438 C 47.03125 -47.03125 46.160156 -48.488281 43.636719 -48.488281 C 39.082031 -48.488281 38.402344 -44.800781 35.203125 -44.800781 C 32.679688 -44.800781 33.070312 -48.488281 25.308594 -48.488281 C 8.628906 -48.488281 0.289062 -28.121094 0.289062 -14.644531 C 0.289062 -6.011719 3.683594 0 10.28125 0 Z M 19.976562 -20.074219 C 16.96875 -20.074219 15.128906 -22.011719 15.128906 -25.308594 C 15.128906 -29.578125 18.328125 -34.328125 23.371094 -34.328125 C 26.472656 -34.328125 28.414062 -32.390625 28.414062 -29.1875 C 28.414062 -25.117188 25.019531 -20.074219 19.976562 -20.074219 Z M 19.976562 -20.074219 "/></g></g></g><g fill="#c15b75" fill-opacity="1"><g transform="translate(244.811401, 226.104966)"><g><path d="M 11.347656 0 C 17.261719 0 22.886719 -6.304688 26.863281 -14.160156 L 27.25 -14.160156 C 26.183594 -6.109375 29.382812 0 35.589844 0 C 46.355469 0 51.6875 -15.128906 56.4375 -24.148438 C 57.410156 -25.988281 53.53125 -28.898438 52.074219 -26.570312 C 50.136719 -23.46875 47.710938 -21.625 44.414062 -21.625 C 40.148438 -21.625 39.082031 -25.503906 42.378906 -32.582031 L 53.335938 -60.609375 C 55.859375 -66.136719 54.5 -69.726562 51.105469 -69.726562 C 48.195312 -69.726562 44.609375 -68.078125 40.921875 -59.15625 C 36.753906 -49.167969 36.753906 -43.832031 35.203125 -43.832031 C 32.679688 -43.832031 33.070312 -48.488281 25.308594 -48.488281 C 8.628906 -48.488281 0.289062 -28.121094 0.289062 -13.769531 C 0.289062 -6.011719 3.683594 0 11.347656 0 Z M 20.171875 -20.074219 C 16.484375 -20.074219 15.128906 -22.5 15.128906 -25.308594 C 15.128906 -29.578125 18.328125 -34.328125 23.078125 -34.328125 C 26.863281 -34.328125 28.414062 -32 28.414062 -29.1875 C 28.414062 -25.117188 25.019531 -20.074219 20.171875 -20.074219 Z M 20.171875 -20.074219 "/></g></g></g><g fill="#c15b75" fill-opacity="1"><g transform="translate(294.654941, 226.104966)"><g><path d="M 48.390625 -26.570312 C 46.0625 -23.175781 43.445312 -21.820312 40.632812 -21.820312 L 39.953125 -21.820312 C 40.921875 -25.019531 41.40625 -28.414062 41.40625 -31.808594 C 41.40625 -44.027344 35.203125 -48.488281 27.25 -48.488281 C 11.832031 -48.488281 0.582031 -30.839844 0.582031 -16.292969 C 0.582031 -6.207031 6.886719 0 15.613281 0 C 22.886719 0 29.769531 -4.265625 34.621094 -10.859375 L 35.785156 -10.859375 C 45.191406 -10.859375 49.941406 -18.230469 52.753906 -24.148438 C 53.820312 -26.378906 49.554688 -28.21875 48.390625 -26.570312 Z M 21.140625 -20.074219 C 17.457031 -20.074219 16.097656 -22.5 16.097656 -25.308594 C 16.097656 -29.578125 19.296875 -34.328125 24.050781 -34.328125 C 27.832031 -34.328125 29.382812 -32 29.382812 -29.1875 C 29.382812 -25.117188 25.988281 -20.074219 21.140625 -20.074219 Z M 21.140625 -20.074219 "/></g></g></g><g fill="#ea98ab" fill-opacity="1"><g transform="translate(38.537173, 221.570529)"><g><path d="M 60.804688 -26.570312 C 56.925781 -20.753906 48.585938 -18.425781 41.988281 -18.425781 C 36.269531 -18.425781 31.808594 -20.460938 27.539062 -22.886719 C 28.703125 -25.308594 29.867188 -27.929688 31.03125 -30.742188 L 32.097656 -30.742188 C 54.402344 -30.742188 65.167969 -45.191406 65.167969 -58.574219 C 65.167969 -67.589844 59.640625 -72.148438 50.910156 -72.148438 C 39.082031 -72.148438 32 -62.160156 23.855469 -42.183594 C 21.140625 -44.316406 19.394531 -47.519531 19.394531 -51.492188 C 19.394531 -57.214844 23.175781 -60.511719 27.832031 -60.511719 C 28.800781 -60.511719 29.382812 -61.289062 29.382812 -63.128906 C 29.382812 -67.882812 25.117188 -71.277344 18.714844 -71.277344 C 8.4375 -71.277344 1.648438 -64.195312 1.648438 -53.433594 C 1.648438 -43.152344 8.535156 -35.492188 19.78125 -32.292969 C 19.105469 -30.933594 18.425781 -29.578125 17.746094 -28.414062 C 14.253906 -29.964844 10.375 -31.128906 5.722656 -31.128906 C -6.59375 -31.128906 -12.800781 -22.691406 -12.800781 -14.644531 C -12.800781 -6.496094 -7.5625 1.164062 3.007812 1.164062 C 11.054688 1.164062 16.777344 -3.589844 21.820312 -11.929688 C 26.570312 -5.914062 32.488281 0 41.699219 0 C 49.167969 0 54.789062 -4.265625 65.167969 -24.148438 C 66.136719 -25.988281 62.355469 -28.898438 60.804688 -26.570312 Z M 46.257812 -55.371094 C 48.488281 -55.371094 49.359375 -53.628906 49.359375 -51.6875 C 49.359375 -46.742188 44.027344 -39.566406 34.621094 -39.082031 C 34.71875 -39.46875 34.8125 -39.757812 35.007812 -40.148438 C 40.921875 -54.113281 44.414062 -55.371094 46.257812 -55.371094 Z M 8.4375 -19.492188 C 6.398438 -19.492188 5.332031 -20.753906 5.332031 -22.207031 C 5.332031 -23.660156 6.496094 -24.921875 8.726562 -24.921875 C 10.472656 -24.921875 12.121094 -23.953125 13.671875 -22.402344 C 11.929688 -20.460938 10.183594 -19.492188 8.4375 -19.492188 Z M 8.4375 -19.492188 "/></g></g></g><g fill="#ea98ab" fill-opacity="1"><g transform="translate(97.108164, 221.570529)"><g><path d="M 10.28125 0 C 17.164062 0 22.984375 -6.304688 26.863281 -14.160156 L 27.25 -14.160156 C 26.085938 -6.109375 28.898438 0 35.589844 0 C 46.355469 0 51.6875 -15.128906 56.4375 -24.148438 C 57.410156 -25.988281 53.53125 -28.898438 52.074219 -26.570312 C 50.136719 -23.46875 47.710938 -21.625 44.414062 -21.625 C 40.148438 -21.625 39.082031 -25.503906 42.378906 -32.582031 C 44.511719 -38.207031 47.03125 -41.214844 47.03125 -44.898438 C 47.03125 -47.03125 46.160156 -48.488281 43.636719 -48.488281 C 39.082031 -48.488281 38.402344 -44.800781 35.203125 -44.800781 C 32.679688 -44.800781 33.070312 -48.488281 25.308594 -48.488281 C 8.628906 -48.488281 0.289062 -28.121094 0.289062 -14.644531 C 0.289062 -6.011719 3.683594 0 10.28125 0 Z M 19.976562 -20.074219 C 16.96875 -20.074219 15.128906 -22.011719 15.128906 -25.308594 C 15.128906 -29.578125 18.328125 -34.328125 23.371094 -34.328125 C 26.472656 -34.328125 28.414062 -32.390625 28.414062 -29.1875 C 28.414062 -25.117188 25.019531 -20.074219 19.976562 -20.074219 Z M 19.976562 -20.074219 "/></g></g></g><g fill="#ea98ab" fill-opacity="1"><g transform="translate(146.951692, 221.570529)"><g><path d="M 2.714844 0.195312 C 6.980469 0.195312 5.332031 -4.847656 11.832031 -4.847656 C 16.582031 -4.847656 15.226562 0 23.953125 0 C 38.886719 0 47.324219 -18.328125 50.234375 -24.148438 C 51.882812 -27.539062 48.875 -31.03125 45.867188 -26.570312 C 42.863281 -22.109375 37.140625 -18.910156 31.03125 -18.910156 C 26.28125 -18.910156 24.148438 -19.878906 24.148438 -21.335938 C 24.148438 -25.40625 43.25 -29.867188 45.867188 -46.839844 C 46.0625 -47.90625 45.09375 -48.875 44.027344 -48.488281 C 36.65625 -45.675781 33.746094 -48.488281 26.765625 -48.488281 C 21.820312 -48.488281 20.460938 -46.546875 18.132812 -46.546875 C 15.128906 -46.546875 17.066406 -50.039062 12.898438 -50.039062 C 11.152344 -50.039062 10.28125 -48.972656 9.699219 -46.546875 C 7.757812 -37.820312 5.625 -32.097656 2.230469 -26.570312 L 6.59375 -24.148438 C 10.859375 -31.226562 15.515625 -34.910156 21.820312 -34.910156 C 24.921875 -34.910156 26.378906 -34.039062 26.378906 -32.195312 C 26.378906 -27.054688 0.871094 -17.941406 0.871094 -3.683594 C 0.871094 -0.96875 1.550781 0.195312 2.714844 0.195312 Z M 2.714844 0.195312 "/></g></g></g><g fill="#ea98ab" fill-opacity="1"><g transform="translate(190.589022, 221.570529)"><g><path d="M 10.28125 0 C 17.164062 0 22.984375 -6.304688 26.863281 -14.160156 L 27.25 -14.160156 C 26.085938 -6.109375 28.898438 0 35.589844 0 C 46.355469 0 51.6875 -15.128906 56.4375 -24.148438 C 57.410156 -25.988281 53.53125 -28.898438 52.074219 -26.570312 C 50.136719 -23.46875 47.710938 -21.625 44.414062 -21.625 C 40.148438 -21.625 39.082031 -25.503906 42.378906 -32.582031 C 44.511719 -38.207031 47.03125 -41.214844 47.03125 -44.898438 C 47.03125 -47.03125 46.160156 -48.488281 43.636719 -48.488281 C 39.082031 -48.488281 38.402344 -44.800781 35.203125 -44.800781 C 32.679688 -44.800781 33.070312 -48.488281 25.308594 -48.488281 C 8.628906 -48.488281 0.289062 -28.121094 0.289062 -14.644531 C 0.289062 -6.011719 3.683594 0 10.28125 0 Z M 19.976562 -20.074219 C 16.96875 -20.074219 15.128906 -22.011719 15.128906 -25.308594 C 15.128906 -29.578125 18.328125 -34.328125 23.371094 -34.328125 C 26.472656 -34.328125 28.414062 -32.390625 28.414062 -29.1875 C 28.414062 -25.117188 25.019531 -20.074219 19.976562 -20.074219 Z M 19.976562 -20.074219 "/></g></g></g><g fill="#ea98ab" fill-opacity="1"><g transform="translate(240.43255, 221.570529)"><g><path d="M 11.347656 0 C 17.261719 0 22.886719 -6.304688 26.863281 -14.160156 L 27.25 -14.160156 C 26.183594 -6.109375 29.382812 0 35.589844 0 C 46.355469 0 51.6875 -15.128906 56.4375 -24.148438 C 57.410156 -25.988281 53.53125 -28.898438 52.074219 -26.570312 C 50.136719 -23.46875 47.710938 -21.625 44.414062 -21.625 C 40.148438 -21.625 39.082031 -25.503906 42.378906 -32.582031 L 53.335938 -60.609375 C 55.859375 -66.136719 54.5 -69.726562 51.105469 -69.726562 C 48.195312 -69.726562 44.609375 -68.078125 40.921875 -59.15625 C 36.753906 -49.167969 36.753906 -43.832031 35.203125 -43.832031 C 32.679688 -43.832031 33.070312 -48.488281 25.308594 -48.488281 C 8.628906 -48.488281 0.289062 -28.121094 0.289062 -13.769531 C 0.289062 -6.011719 3.683594 0 11.347656 0 Z M 20.171875 -20.074219 C 16.484375 -20.074219 15.128906 -22.5 15.128906 -25.308594 C 15.128906 -29.578125 18.328125 -34.328125 23.078125 -34.328125 C 26.863281 -34.328125 28.414062 -32 28.414062 -29.1875 C 28.414062 -25.117188 25.019531 -20.074219 20.171875 -20.074219 Z M 20.171875 -20.074219 "/></g></g></g><g fill="#ea98ab" fill-opacity="1"><g transform="translate(290.276089, 221.570529)"><g><path d="M 48.390625 -26.570312 C 46.0625 -23.175781 43.445312 -21.820312 40.632812 -21.820312 L 39.953125 -21.820312 C 40.921875 -25.019531 41.40625 -28.414062 41.40625 -31.808594 C 41.40625 -44.027344 35.203125 -48.488281 27.25 -48.488281 C 11.832031 -48.488281 0.582031 -30.839844 0.582031 -16.292969 C 0.582031 -6.207031 6.886719 0 15.613281 0 C 22.886719 0 29.769531 -4.265625 34.621094 -10.859375 L 35.785156 -10.859375 C 45.191406 -10.859375 49.941406 -18.230469 52.753906 -24.148438 C 53.820312 -26.378906 49.554688 -28.21875 48.390625 -26.570312 Z M 21.140625 -20.074219 C 17.457031 -20.074219 16.097656 -22.5 16.097656 -25.308594 C 16.097656 -29.578125 19.296875 -34.328125 24.050781 -34.328125 C 27.832031 -34.328125 29.382812 -32 29.382812 -29.1875 C 29.382812 -25.117188 25.988281 -20.074219 21.140625 -20.074219 Z M 21.140625 -20.074219 "/></g></g></g><g clip-path="url(#2548936497)"><g clip-path="url(#6d36b7fa80)"><path fill="#e19fae" d="M 137.203125 77.660156 L 237.945312 77.660156 L 237.945312 165.679688 L 137.203125 165.679688 Z M 137.203125 77.660156 " fill-opacity="1" fill-rule="nonzero"/></g></g><g clip-path="url(#385eb85cb0)"><g clip-path="url(#06411e275f)"><path fill="#d71f48" d="M 150.417969 89.222656 L 224.691406 89.222656 L 224.691406 154.117188 L 150.417969 154.117188 Z M 150.417969 89.222656 " fill-opacity="1" fill-rule="nonzero"/></g></g><g clip-path="url(#421856a142)"><g clip-path="url(#1595f36244)"><path fill="#7c001c" d="M 162.042969 99.394531 L 213.03125 99.394531 L 213.03125 143.945312 L 162.042969 143.945312 Z M 162.042969 99.394531 " fill-opacity="1" fill-rule="nonzero"/></g></g></svg>